<svg width="299" height="175" viewBox="0 0 299 175" fill="none" xmlns="http://www.w3.org/2000/svg">
<path fill-rule="evenodd" clip-rule="evenodd" d="M95.8265 28.9525C102.57 36.1805 110.57 41.6805 119.827 45.4525C140.829 48.3645 161.829 51.3645 182.827 54.4525C198.54 60.4765 213.874 67.3105 228.827 74.9525C240.515 80.6565 252.848 82.8225 265.827 81.4525C274.715 78.6745 283.382 75.3405 291.827 71.4525C294.096 70.6945 296.263 70.8615 298.327 71.9525C298.601 75.1015 297.935 78.1015 296.327 80.9525C285.258 100.688 270.091 116.522 250.827 128.452C237 135.113 223 141.279 208.827 146.952C207.994 147.952 207.16 148.952 206.327 149.952C205.753 155.49 204.42 160.824 202.327 165.952C200.494 169.119 197.994 171.619 194.827 173.452C189.494 174.119 184.16 174.119 178.827 173.452C176.757 172.504 175.257 171.004 174.327 168.952C173.994 163.619 173.66 158.285 173.327 152.952C167.769 142.322 162.103 142.322 156.327 152.952C155.585 158.651 155.752 164.318 156.827 169.952C156.798 171.481 156.131 172.648 154.827 173.452C141.556 177.08 130.889 173.58 122.827 162.952C121.116 156.025 119.616 149.025 118.327 141.952C115.514 133.132 110.348 125.965 102.827 120.452C91.7285 113.183 81.7285 104.683 72.8265 94.9525C69.0045 88.1405 64.3385 81.9745 58.8265 76.4525C53.4935 75.7855 48.1595 75.7855 42.8265 76.4525C4.2065 86.1485 -8.2935 71.9815 5.3265 33.9525C7.1035 29.5485 9.9365 26.0485 13.8265 23.4525C25.7165 18.6795 36.0505 11.6795 44.8265 2.4525C51.8115 -0.8175 58.8115 -0.8175 65.8265 2.4525C68.4935 4.1195 71.1595 5.7855 73.8265 7.4525C81.0285 14.8215 88.3615 21.9885 95.8265 28.9525Z" fill="#3BC372"/>
<path fill-rule="evenodd" clip-rule="evenodd" d="M173.827 65.9525C179.882 65.5045 182.048 68.1715 180.327 73.9525C169.855 98.3685 159.188 122.702 148.327 146.952C145.276 149.826 142.609 149.493 140.327 145.952C139.66 144.285 139.66 142.619 140.327 140.952C150.976 115.66 162.143 90.6595 173.827 65.9525Z" fill="white"/>
<path fill-rule="evenodd" clip-rule="evenodd" d="M123.827 86.9525C130.708 86.8425 132.541 89.8425 129.327 95.9525C125.494 99.7855 121.66 103.62 117.827 107.453C121.994 111.62 126.16 115.786 130.327 119.953C131.704 124.534 130.037 127.201 125.327 127.953C117.751 122.047 111.251 115.213 105.827 107.453C105.994 106.62 106.16 105.786 106.327 104.953C112.391 99.0575 118.224 93.0575 123.827 86.9525Z" fill="white"/>
<path fill-rule="evenodd" clip-rule="evenodd" d="M192.827 86.9525C194.982 86.8245 196.982 87.3245 198.827 88.4525C203.994 93.6195 209.16 98.7855 214.327 103.953C214.994 105.953 214.994 107.953 214.327 109.953C208.25 116.535 201.75 122.535 194.827 127.953C190.802 127.236 189.302 124.903 190.327 120.953C194.308 116.137 198.475 111.471 202.827 106.953C198.842 102.468 194.676 98.1345 190.327 93.9525C189.489 90.9715 190.322 88.6385 192.827 86.9525Z" fill="white"/>
</svg>
